<?xml version="1.0" encoding="utf-8"?>
<!-- Generator: Adobe Illustrator 22.0.0, SVG Export Plug-In . SVG Version: 6.00 Build 0)  -->
<svg version="1.1" id="Layer_1" xmlns="http://www.w3.org/2000/svg" xmlns:xlink="http://www.w3.org/1999/xlink" x="0px" y="0px"
	 viewBox="0 0 1400 980" style="enable-background:new 0 0 1400 980;" xml:space="preserve">
<style type="text/css">
	.st0{fill:url(#SVGID_1_);}
	.st1{clip-path:url(#SVGID_3_);}
	.st2{opacity:0.15;fill:#FFFFFF;}
	.st3{opacity:0.2;fill:#FFFFFF;}
	.st4{fill:#FFFFFF;}
	.st5{fill:url(#SVGID_4_);}
	.st6{fill:url(#SVGID_5_);}
	.st7{fill:url(#SVGID_6_);}
	.st8{fill:#DADBD9;}
	.st9{fill:#BFC1BC;}
	.st10{fill:url(#SVGID_7_);}
	.st11{fill:#ADAFAA;}
	.st12{fill:url(#SVGID_8_);}
	.st13{fill:url(#XMLID_2_);}
	.st14{fill:#ABE585;}
	.st15{fill:#83C658;}
	.st16{fill:#98D670;}
	.st17{fill:#77B74E;}
	.st18{fill:#8B5D3A;}
	.st19{fill:#5DBA20;}
	.st20{clip-path:url(#SVGID_10_);}
	.st21{fill:#78B74F;}
	.st22{fill:none;}
	.st23{fill:#89602F;}
	.st24{fill:#724E27;}
	.st25{fill:#9B6B32;}
	.st26{fill:#664725;}
	.st27{fill:url(#SVGID_11_);}
	.st28{fill:#70A54E;}
	.st29{fill:#292D27;}
	.st30{fill:url(#SVGID_12_);}
	.st31{fill:url(#SVGID_13_);}
	.st32{fill:#639642;}
	.st33{fill:url(#SVGID_14_);}
	.st34{fill:url(#SVGID_15_);}
	.st35{fill:#629640;}
</style>
<g id="Fondo__x28_Cielo_x29_">
	<linearGradient id="SVGID_1_" gradientUnits="userSpaceOnUse" x1="699.9983" y1="659.2223" x2="699.9983" y2="-218.9346">
		<stop  offset="0" style="stop-color:#FFFFFF"/>
		<stop  offset="0.5" style="stop-color:#97E9F6"/>
		<stop  offset="1" style="stop-color:#2A7EFF"/>
	</linearGradient>
	<rect class="st0" width="1400" height="980"/>
	<g>
		<defs>
			<rect id="SVGID_2_" y="0" width="1400.4" height="987"/>
		</defs>
		<clipPath id="SVGID_3_">
			<use xlink:href="#SVGID_2_"  style="overflow:visible;"/>
		</clipPath>
		<g class="st1">
			
				<ellipse transform="matrix(0.7071 -0.7071 0.7071 0.7071 -26.8498 84.729)" class="st2" cx="88.9" cy="74.8" rx="593.5" ry="593.5"/>
			<circle class="st3" cx="90.6" cy="81.5" r="490.3"/>
			<circle class="st3" cx="79" cy="74.8" r="208.2"/>
			<circle class="st4" cx="79" cy="74.8" r="147.2"/>
		</g>
	</g>
</g>
<g id="Montains">
	<g>
		<linearGradient id="SVGID_4_" gradientUnits="userSpaceOnUse" x1="1013.3572" y1="15.0006" x2="1013.3572" y2="430.8988">
			<stop  offset="0" style="stop-color:#FFFFFF"/>
			<stop  offset="1" style="stop-color:#FFFFFF;stop-opacity:0"/>
		</linearGradient>
		<path class="st5" d="M1346.7,181c0,0-88.7-85.8-167.4-25c0,0-76.8-32.1-104.5,33.8c-27.7,65.9-99.3,8-119.4,33.2
			c0,0-51.5-6.1-55.8,31.9s-56.3,2.5-100.4,52.8c-44,50.4-51.1,105.6-119.2,80.5v50.5h665.1L1346.7,181z"/>
		
			<linearGradient id="SVGID_5_" gradientUnits="userSpaceOnUse" x1="401.0276" y1="54.2879" x2="401.0276" y2="560.0201" gradientTransform="matrix(0.9638 -0.2667 0.2667 0.9638 -41.9381 165.9445)">
			<stop  offset="0" style="stop-color:#FFFFFF"/>
			<stop  offset="1" style="stop-color:#FFFFFF;stop-opacity:0"/>
		</linearGradient>
		<path class="st6" d="M856.7,322.9c0,0-56-59.4-140.1-2.8c0,0-10.5-27.9-44.1-14.1c0,0-23.2-32.4-73.9-9
			c-50.7,23.4-105.1-47.8-144.3-15.2c0,0-68.5-10.2-98.9,63.4c0,0-51.3-6.6-64.4,42.8c0,0-54.2-15.5-83.7,31.5c0,0-32,2.9-36.7,37.8
			c-4.6,35,41.3,57.4,71.2,31.6c0,0,15.3,23.5,57.1,24.4c0,0,34.7-10,53.4,17.6c18.7,27.6,49.6,13.1,49.6,13.1s-4.6,39.2-82.1,38.4
			s-83.6,48.5-83.6,48.5s-34.2-15-52.8,14.6c-18.6,29.6-76.1-6.2-106.2,34l36.1,130.4L929,584.2L856.7,322.9z"/>
		<linearGradient id="SVGID_6_" gradientUnits="userSpaceOnUse" x1="356.7341" y1="311.7717" x2="356.7341" y2="590.6482">
			<stop  offset="0" style="stop-color:#FFFFFF"/>
			<stop  offset="1" style="stop-color:#FFFFFF;stop-opacity:0"/>
		</linearGradient>
		<path class="st7" d="M-37.9,510.4c0,0,46.7-66.8,138.3-23.1c0,0,6.3-29.2,41.6-20.4c0,0,18.2-35.4,71.8-19.6
			c53.6,15.8,97.1-62.6,140.5-35.9c0,0,66.3-20,107.1,48.4c0,0,49.8-14,70,33c0,0,51.4-23.2,87.4,19c0,0,32.1-1.8,41.8,32.1
			c9.7,34-32.5,62.8-65.8,41.6c0,0-11.7,25.5-53,32.4c0,0-35.8-4.9-50.3,25.1c-14.5,30-47.2,20.1-47.2,20.1s10.3,38.1,86.8,26.1
			c76.5-12,89.8,35.9,89.8,35.9s31.7-19.8,54.4,6.8c22.7,26.6,74.4-17.2,110,18.2l-16.8,134.3L-71.6,779.4L-37.9,510.4z"/>
		<g>
			<path class="st8" d="M74.8,632l51.1,34.4l-3.3-7.1l38.6,21.2l-25.2-29l-2.6-11.8L81,597.4v-8.1l28.5,6.4l-12.8-11l16.3-18.1
				l13.2,4.7l-6.3-13.9l85.8,65.7l-12.9-20.4l63.2,40.6l-13.5-19.8l-22.1-22.3l24,8.7l-18.3-15.8l23.8,9l20.8,6.2l27.1,14.2
				l-24-27.1l33.1,12.3l6.9-5.2l17.5,3.7l0.2-6l17.3,7.5l16.3,3.3l-33.3-39.5l-14.2,12.5l-9-5.8l-5.6,7.1l-6.9-5.6l-25.6-6.7
				l-13.1,5c0,0-16.9-13.1-17.5-13.1c-0.6,0-5,6.7-5,6.7L218,561.4l-17.9-19.8l-5,3.1l-17.9-10.4l-4.6-6.5l-12.3,6.5l-2.9,8.3
				l-19-19.2l-8.8,5.2l-6.9-5.2l-10.8,7.1l-5.2,14.2l-9.8-1.9l-10.6,21.5l-10.8-4.8l-12.9-14.8l-2.9,8.3l-14.2,12.1l-5.2,17.7
				l-11.9,9l-6,21.2l41.5,19.8L74.8,632z"/>
			<polygon class="st9" points="471.5,562.8 448.8,566.8 436.5,559.7 411.9,572.4 384.8,551.2 380.2,563.2 372.5,556.8 349.4,557.2 
				331.7,572.6 365,612.2 348.7,608.8 331.4,601.3 331.2,607.4 313.7,603.6 306.8,608.8 273.7,596.6 297.7,623.6 270.6,609.5 
				249.7,603.2 225.9,594.3 244.3,610.1 220.3,601.3 242.4,623.6 256,643.4 192.8,602.8 205.7,623.2 119.9,557.5 126.2,571.4 
				113,566.7 96.7,584.8 109.5,595.7 81,589.3 81,597.4 133.3,639.7 135.9,651.5 161.1,680.5 122.6,659.3 125.9,666.3 74.8,632 
				63.8,632.8 22.3,613 22.3,882.5 515.4,882.5 515.4,578.1 			"/>
		</g>
		<g>
			<g>
				<path class="st8" d="M1195.7,220.8l-13.2,1l-6,8.2l-28.2,3.2l-26.1,4.4l-17.8-4.4l-11.7,7.5l-14.2-1.9l-36.1-2.8l-33.4,22.2
					h-14.7l-35,33l-5,13.6l-43.6,10l-8.1,8.1h-24.7l-14.2,24.4l-10.3-3.6l-57.8,21.4l-11.1,12.8l-27.8,3.6l-10.3-10.8l-19.2,7.8
					l-6.4-2.2l-6.4,23.3l-16.4,8.3l14.7,11.9l-27.5-9.4l-15.8,21.4l-17.8,11.1l-1.9,15.6l-60-7.2l17.8,10l-39.2,4.4l-13.1,3.1
					l-31.4,58.6l-12.2,8.9L480.1,585l-8.9,24.4l-12.2,7.8L410.9,670v111.2l58.9-16.5l27.8-13.9L607,658.6l14.2-27.1l-17.9-22.1
					l5-19.6l18.1-34.6l-2.8-10l4.4-14.7l26.4-27.2l10,6.7l21.1,27.5l37.2-3.9l41-30l12.1-53.3l16.7-21.9l36.7-20.3l10.3-21.1
					l32.2-7.2l-1.1-15.6l8.6-19.2l35.9-10.6l36.1-4.4l-11.7,8.6l32.5,1.1l20.8,8.9l29.5-25.8l17.2,15l20.8,3.1l34.2,22.5l16.7,2.2
					c0,0,5.3-14.2,5.6-15c0.3-0.8,8.3-10,8.3-10l10,7.5l5.4-29l8.8-7.1l13.8-32.5l14.6-7.5l11-33.2l20.2-13.4v0L1195.7,220.8z"/>
				<linearGradient id="SVGID_7_" gradientUnits="userSpaceOnUse" x1="644.5238" y1="378.6861" x2="644.5238" y2="480.6725">
					<stop  offset="0" style="stop-color:#FFFFFF"/>
					<stop  offset="1" style="stop-color:#E2E2E8"/>
				</linearGradient>
				<polygon class="st10" points="589.6,451.2 649.7,458.4 651.6,442.8 669.4,431.7 685.2,410.3 712.8,419.8 698,407.8 714.4,399.5 
					720.8,376.2 706.6,392.8 696.4,386.5 691.6,387.3 679.4,379.8 657.4,399.8 622.7,399.8 601,416.2 586,420.3 568.2,465.6 
					607.4,461.2 				"/>
			</g>
			<g>
				<path class="st11" d="M1275.3,550.3l-50,15l-12.2,7.2l-7.8-3.9c0,0-51.7,13.3-54.5,11.7c-2.8-1.7-74.5-36.7-76.2-39.4
					c-1.7-2.8-42.2-15.6-42.2-15.6l32.8,25.8l-37.8-14.2l16.7,23.9c0,0-25.6,0-27.2,0c-1.7,0-18.3-7.2-18.3-7.2l43.4,39.4l25,11.1
					l30,21.1l-5.4,26.7l-28.8,23.3l-9.6,19.2l-23.3,14.6h-19.2l-27.1-39.6L996,657l-22.1,6.7l-30.4-3.3l-50.9-37.1
					c0,0-17.2,17.9-18.1,18.2s-12.8,6.7-12.8,6.7l-15,15l4.2-29.4L837,613.1l-66.4,49.4l20-26.1L736.9,675l-26.1,54l-47.5,48.3
					l15.3-27.1l-18.9,0.6l3.6-7.5l14.2-15.3l-11.4,2.5l16.6-21.1l-32.9,21.9l-38.6,35l16.3-27.1l-41.7,26.5l-18.6,2.5l9.2-11.5
					l-4.2-18.3l12.7-9.2l0.2-10.8l7.9-8.1v-16l44.4-26.9l26.7-27.5c0,0-29.4,18.3-30.2,18.3c-0.8,0-30.9,9.4-30.9,9.4l19.6-13.5
					l-15.6,4.6l-109.4,92.2l-27.8,13.9l-58.9,16.5l-16.7,4.7c0,0-50.3,14.4-52.8,14.4c-2.5,0-101.7,6.7-101.7,6.7V898h154.5h111
					h895.1V468.4L1275.3,550.3z"/>
				<g>
					<linearGradient id="SVGID_8_" gradientUnits="userSpaceOnUse" x1="1265.3027" y1="282.5953" x2="1265.3027" y2="159.4128">
						<stop  offset="0" style="stop-color:#C1C7D1"/>
						<stop  offset="1" style="stop-color:#E2E2E8"/>
					</linearGradient>
					<polygon class="st12" points="1269.3,218.1 1280.1,201.8 1290.1,200 1280.7,185 1276.3,160.4 1267.4,175.2 1240.5,204.8 
						1242,217.5 1264.9,227.5 					"/>
					<path class="st9" d="M1355.8,111.7l-9.2,15.8l-25.5-8.1l-12.2,10.2l-7.9,10l-12.7,1.2l-11.9,19.6l4.4,24.5l9.4,15l-10,1.9
						l-10.8,16.2l-4.4,9.4l-22.9-10l-24,1.9l-9,6l-20.2,13.4l-11,33.2l-14.6,7.5l-13.8,32.5l-8.8,7.1l-5.4,29l-10-7.5
						c0,0-8.1,9.2-8.3,10c-0.3,0.8-5.6,15-5.6,15l-16.7-2.2l-34.2-22.5l-20.8-3.1l-17.2-15l-29.5,25.8l-20.8-8.9l-32.5-1.1l11.7-8.6
						l-36.1,4.4l-35.9,10.6l-8.6,19.2l1.1,15.6l-32.2,7.2l-10.3,21.1l-36.7,20.3l-16.7,21.9l-12.1,53.3l-41,30l-37.2,3.9L664.4,510
						l-10-6.7L628,530.6l-4.4,14.7l2.8,10l-18.1,34.6l-5,19.6l17.9,22.1L607,658.6l15.6-4.6L603,667.6c0,0,30-9.4,30.9-9.4
						c0.8,0,30.2-18.3,30.2-18.3l-26.7,27.5L593,694.2v16l-7.9,8.1l-0.2,10.8l-12.7,9.2l4.2,18.3l-9.2,11.5l18.6-2.5l41.7-26.5
						l-16.3,27.1l38.6-35l32.9-21.9l-16.6,21.1l11.4-2.5l-14.2,15.3l-3.6,7.5l18.9-0.6l-15.3,27.1l47.5-48.3l26.1-54l53.6-38.6
						l-20,26.1l66.4-49.4l13.9,20.6l-4.2,29.4l15-15c0,0,12-6.4,12.8-6.7s18.1-18.2,18.1-18.2l50.9,37.1l30.4,3.3L996,657
						l-12.5,12.5l27.1,39.6h19.2l23.3-14.6l9.6-19.2l28.8-23.3l5.4-26.7l-30-21.1l-25-11.1l-43.4-39.4c0,0,16.7,7.2,18.3,7.2
						c1.7,0,27.2,0,27.2,0l-16.7-23.9l37.8,14.2l-32.8-25.8c0,0,40.6,12.8,42.2,15.6c1.7,2.8,73.4,37.8,76.2,39.4
						c2.8,1.7,54.5-11.7,54.5-11.7l7.8,3.9l12.2-7.2l50-15l125.1-81.9V100L1355.8,111.7z"/>
				</g>
			</g>
		</g>
		<polygon class="st9" points="1.3,839.1 62.4,786.9 85.7,742.5 68.7,710.3 141.8,719.9 146.4,711.4 220.3,732.6 232.3,724.8 
			265.5,716.3 283.8,700.1 329.7,700.1 364,676.8 404,669.2 431.5,692.3 479.4,699.2 490.8,708.2 460.3,739.5 514.5,713.9 
			527.5,700.5 536.4,702.9 584.2,677.9 549.8,717.7 496.8,750.6 509.3,758.5 438.3,796.6 364,854.4 372.7,827.3 301.1,849.6 
			278.9,860.1 241.3,860.1 203.7,878.7 159.7,920.5 1.3,920.5 		"/>
		<linearGradient id="XMLID_2_" gradientUnits="userSpaceOnUse" x1="1033.1708" y1="728.3129" x2="1033.1708" y2="728.3129">
			<stop  offset="0" style="stop-color:#608D6B"/>
			<stop  offset="1" style="stop-color:#4A6D59"/>
		</linearGradient>
		<path id="XMLID_3_" class="st13" d="M1033.2,728.3"/>
	</g>
</g>
<g id="Grass">
	<path class="st14" d="M365.8,750.4c-5.3-2,11.3-13.3,11.3-13.3c-14.7-4-25.3,11.3-25.3,11.3c1.3-8-9.3-14-9.3-14
		c1.3,10.7-14,11.3-14,11.3c-6-3.3,0-17.3,0-17.3c-12.7,1.3-12,18-12,18c-2.7-14.7-25.3-22.7-25.3-22.7c14,12,6.7,18,6.7,18
		c-115-8-297.8,45-297.8,45v127V980C31.9,861,365.8,750.4,365.8,750.4z"/>
	<g>
		<path class="st15" d="M1060.1,649.5c-9.1,1.7-18.2,3.5-27.4,5.4C795.3,702.7,510.5,796.9,398.8,980H1400V607
			C1400,607,1248.2,613.7,1060.1,649.5z"/>
		<g>
			<path class="st16" d="M764.7,727.8c-179.8-61.6-398.9,22.6-398.9,22.6S31.9,860.9,0,980h398.8
				C469.8,863.7,610.6,783.3,764.7,727.8z"/>
		</g>
	</g>
	<path class="st15" d="M303.4,815.2c0,0,50.3-37.3,87.3-57.3s131.5-18.5,131.5-18.5s-72.1,14-100.9,23.8
		C392.4,773,303.4,815.2,303.4,815.2z"/>
	<g>
		<path class="st17" d="M257.4,960.9c0.1,2.4,5.6,4.1,12.1,3.7c6.6-0.4,11.7-2.7,11.6-5.1c-0.1-2.4-5.6-4.1-12.1-3.7
			S257.3,958.5,257.4,960.9z"/>
		<path class="st17" d="M285.7,947.2c0.1,1.2,2.8,2,6.1,1.8c3.3-0.2,5.9-1.3,5.8-2.6c-0.1-1.2-2.8-2-6.1-1.8
			C288.3,944.8,285.7,946,285.7,947.2z"/>
		<path class="st17" d="M374.2,949.2c0.1,1,2.3,1.7,5.1,1.5c2.7-0.2,4.9-1.1,4.8-2.1c-0.1-1-2.3-1.7-5.1-1.5
			C376.3,947.2,374.1,948.2,374.2,949.2z"/>
	</g>
	<g>
		<path class="st16" d="M134.5,770.4c0.1,0.9,2.1,1.6,4.7,1.4c2.5-0.2,4.5-1,4.5-2c-0.1-0.9-2.1-1.6-4.7-1.4
			C136.5,768.6,134.5,769.4,134.5,770.4z"/>
		<path class="st16" d="M145.4,765.1c0,0.5,1.1,0.8,2.3,0.7c1.3-0.1,2.3-0.5,2.2-1c0-0.5-1.1-0.8-2.3-0.7
			C146.4,764.2,145.4,764.6,145.4,765.1z"/>
		<path class="st16" d="M179.4,765.9c0,0.4,0.9,0.7,1.9,0.6c1-0.1,1.9-0.4,1.9-0.8c0-0.4-0.9-0.7-1.9-0.6
			C180.3,765.1,179.4,765.5,179.4,765.9z"/>
	</g>
	<g>
		<path class="st17" d="M1258.1,649.6c0.2,2.4-4.9,4.8-11.4,5.4c-6.5,0.6-11.9-0.9-12.2-3.3c-0.2-2.4,4.9-4.8,11.4-5.4
			C1252.4,645.7,1257.9,647.2,1258.1,649.6z"/>
		<path class="st17" d="M1228.2,640.4c0.1,1.2-2.4,2.4-5.7,2.7c-3.3,0.3-6-0.5-6.1-1.7c-0.1-1.2,2.4-2.4,5.7-2.7
			S1228.1,639.1,1228.2,640.4z"/>
		<path class="st17" d="M1141.6,655.2c0.1,1-2,2-4.7,2.2c-2.7,0.2-5-0.4-5.1-1.4c-0.1-1,2-2,4.7-2.2
			C1139.2,653.6,1141.5,654.2,1141.6,655.2z"/>
	</g>
	<g>
		<path class="st17" d="M551.9,852.1c0.3,3.3,7.9,5.2,16.8,4.3c8.9-0.9,15.9-4.4,15.6-7.7c-0.3-3.3-7.9-5.2-16.8-4.3
			C558.5,845.4,551.6,848.8,551.9,852.1z"/>
		<path class="st17" d="M589.8,831.7c0.2,1.7,3.9,2.6,8.4,2.2c4.5-0.5,8-2.2,7.8-3.9c-0.2-1.7-3.9-2.6-8.4-2.2
			C593.1,828.3,589.6,830.1,589.8,831.7z"/>
		<path class="st17" d="M710.9,829.1c0.1,1.4,3.3,2.2,7,1.8c3.7-0.4,6.6-1.8,6.5-3.2c-0.1-1.4-3.3-2.2-7-1.8
			C713.7,826.3,710.8,827.7,710.9,829.1z"/>
	</g>
</g>
<g id="Arboles">
	<g>
		<g>
			<path class="st15" d="M243.3,686c0,0-15,8-23.5,0c0,0-5.6-5.1-7.4-11.9c-2.8,10.3,7.4,19.4,7.4,19.4c8.5,8,23.5,0,23.5,0
				c21,9,30.8-13.2,30.8-13.2c0.9-3,0.6-5.3-0.2-7C272.3,676.6,262.4,694.2,243.3,686z"/>
			<path class="st16" d="M219.8,686c8.5,8,23.5,0,23.5,0c19.1,8.2,29-9.4,30.6-12.7c-1.8-3.7-6.1-4.9-6.1-4.9c2.5-8.5-5-8.5-5-8.5
				c3-11.5-14-10-14-10c-26-3.5-26,12-26,12c-6.3,3.9-9.3,8.1-10.4,12.1C214.2,680.9,219.8,686,219.8,686z"/>
		</g>
		<g>
			<path class="st18" d="M252.7,716.2c0,0-9-18.7-2.7-26.7l9-10.3l-13.7,5.3l-15.7-8.3l10.7,13.3l3,28c0,0,7,17.1,15,23.6
				c3.2-0.1,6.3-0.2,9.5-0.2L252.7,716.2z"/>
		</g>
	</g>
	<g>
		<g>
			<path class="st15" d="M690.1,625.2c0,0,21.5,11.4,33.6,0c0,0,8.1-7.3,10.5-17.1c4,14.8-10.5,27.8-10.5,27.8
				c-12.2,11.4-33.6,0-33.6,0C660.1,648.7,646,617,646,617c-1.3-4.3-0.9-7.5,0.3-10C648.7,611.7,662.8,636.9,690.1,625.2z"/>
			<path class="st16" d="M723.7,625.2c-12.2,11.4-33.6,0-33.6,0c-27.3,11.7-41.4-13.5-43.7-18.1c2.6-5.3,8.7-6.9,8.7-6.9
				c-3.6-12.2,7.2-12.2,7.2-12.2c-4.3-16.4,20-14.3,20-14.3c37.2-5,37.2,17.2,37.2,17.2c9,5.6,13.3,11.6,14.8,17.3
				C731.8,617.9,723.7,625.2,723.7,625.2z"/>
		</g>
		<path class="st18" d="M694.4,630.3l-4.3,40c0,0-12.4,30.9-25.2,37.1l-11.5-0.9l23.4-38.1c0,0,12.9-26.7,3.8-38.1l-12.9-14.8
			l19.5,7.6l22.4-11.9L694.4,630.3z"/>
	</g>
	<g>
		<g>
			<path class="st15" d="M562.8,644.3c0,0-21.5,11.4-33.6,0c0,0-8.1-7.3-10.5-17.1c-4,14.8,10.5,27.8,10.5,27.8
				c12.2,11.4,33.6,0,33.6,0c30,12.9,44.1-18.8,44.1-18.8c1.3-4.3,0.9-7.5-0.3-10C604.2,630.8,590.1,656,562.8,644.3z"/>
			<path class="st16" d="M529.2,644.3c12.2,11.4,33.6,0,33.6,0c27.3,11.7,41.4-13.5,43.7-18.1c-2.6-5.3-8.7-6.9-8.7-6.9
				c3.6-12.2-7.2-12.2-7.2-12.2c4.3-16.4-20-14.3-20-14.3c-37.2-5-37.2,17.2-37.2,17.2c-9,5.6-13.3,11.6-14.8,17.3
				C521.1,637,529.2,644.3,529.2,644.3z"/>
		</g>
		<g>
			<path class="st18" d="M596.8,721.2l-20.6-33.7c0,0-12.9-26.7-3.8-38.1l12.9-14.8l-19.5,7.6l-22.4-11.9l15.3,19.1l4.3,40
				c0,0,8.9,21.6,19.5,31.9C586.6,721.1,591.5,721,596.8,721.2z"/>
			<path class="st19" d="M596.8,721.2c-5.3-0.2-10.2-0.1-14.5,0.2c-14.7,1-23.1,4.3-23.1,4.3h28.9h11.4h27.9
				C616,722.8,605.7,721.6,596.8,721.2z"/>
		</g>
	</g>
</g>
<g id="Ramas">
	<defs>
		<rect id="SVGID_9_" x="915" y="579" width="485" height="401"/>
	</defs>
	<clipPath id="SVGID_10_">
		<use xlink:href="#SVGID_9_"  style="overflow:visible;"/>
	</clipPath>
	<g class="st20">
		<g>
			<path class="st16" d="M952.5,726.6c0,0,50.3,53.3,69.2,76.2c18.8,22.9,77.6,108.2,77.6,108.2l27.3,15.5l-64.9-101.1L952.5,726.6z
				"/>
			<path class="st21" d="M1050.7,802c-27.7-22.6-98.2-75.4-98.2-75.4l109.1,98.8l64.9,101.1l36.8,20.9
				C1163.3,947.5,1078.4,824.6,1050.7,802z"/>
		</g>
		<g>
			<path class="st14" d="M1114.5,949.2l-58.7-37.8l-72-104.9c0,0,42.3,77.3,60.6,108c18.4,30.6,127.9,132.2,127.9,132.2l-26.9-68.7
				C1145.4,978,1131.8,965.4,1114.5,949.2z"/>
			<path class="st16" d="M1114.5,949.2c-23.5-22.1-53.6-50.7-65.1-63.4c-20-21.9-65.6-79.3-65.6-79.3l72,104.9L1114.5,949.2z"/>
		</g>
		<g>
			<path class="st16" d="M1125.7,859l-44.9-53.5L1043.1,684c0,0,17.4,86.4,25.9,121.1c8.5,34.7,83,164.2,83,164.2l-5.3-73.6
				C1146.7,895.7,1137.4,879.6,1125.7,859z"/>
			<path class="st21" d="M1125.7,859c-15.9-28-36.2-64.4-43.4-79.8c-12.6-26.8-39.1-95.2-39.1-95.2l37.7,121.5L1125.7,859z"/>
		</g>
		<g>
			<path class="st21" d="M1367.6,977.8l14.4,31.9c0,0,4.7-197.3-7.3-243c-12.1-45.6-46.4-156.9-46.4-156.9l35.1,191.6L1367.6,977.8z
				"/>
			<path class="st14" d="M1363.5,801.4l-35.1-191.6c0,0,12.3,96.1,14.7,135.2c2.4,39.1-1.2,175.9-1.2,175.9l25.8,56.9L1363.5,801.4z
				"/>
		</g>
		<g>
			<path class="st14" d="M1245.2,609.8c17.1,44.3,71.6,198.4,71.6,198.4c8.7,40.2,18.9,115,18.9,115l24.2,0.9l-57.1-185.4
				L1245.2,609.8z"/>
			<path class="st21" d="M1301.1,714.9c-10.4-21-55.8-105.2-55.8-105.2l57.6,129l57.1,185.4l21.2,0.8
				C1381.2,924.9,1311.5,735.9,1301.1,714.9z"/>
		</g>
		<g>
			<path class="st14" d="M1216.4,697.1c28.9,37.7,124.8,170.1,124.8,170.1c19.7,36.1,50.7,104.9,50.7,104.9l23.5-6l-107.2-161.6
				L1216.4,697.1z"/>
			<path class="st21" d="M1299.7,782.1c-15.9-17.2-83.3-85.1-83.3-85.1l91.8,107.4l107.2,161.6l20.5-5.2
				C1435.9,960.9,1315.6,799.3,1299.7,782.1z"/>
		</g>
	</g>
</g>
<g id="Arbol_y_Chamaleon">
	<g>
		<g>
			<path class="st22" d="M1332.3,421.7c0,0,9.6,66.6,67.7,87.7V384.9C1396,389.9,1379.4,407.5,1332.3,421.7z"/>
			<path class="st23" d="M1332.3,421.7c47-14.2,63.7-31.8,67.7-36.8V277.4c-9.7,37.9-25.5,38.4-60.3,41c-36,2.7-26.7-60-24-83.3
				c2.7-23.3-4.7-96.7-35.3-126c-30.7-29.3-28-109-28-109h-140c3.3,22.3,14.7,36.1,14.7,36.1c101,153.1,52.7,308.9,52.7,308.9
				c-24,6-33.3,1.3-50.7-16.7s-42.7-19.3-42.7-19.3l-65.3-68.7c-4-21.3-10.7-21.3-10.7-21.3C981,219,888,165,868,135.2
				S829,102,829,102C899,61,897.3,0,897.3,0h-22.8c-1,4.5,7.2,18.3,7.2,18.3C861,77,811.7,85,811.7,85C725,91,700,0,700,0h-17
				c5.3,32.3,55.3,83.7,55.3,83.7C636.3,113,525,0,525,0h-18c31.3,46.3,148.7,105.7,222,114.3c44.4,5.3,78.7,20,98.8,30.9l-0.1-0.6
				C852.6,145.3,982,231,988,231s12,19.8,12,19.8l61,64.7c0,0,103,178.5,155,185.5c52,7,69,66,69,66s1,36,34,68
				c22.5,21.9,60.1,70.5,81,99.2V509.4C1341.9,488.3,1332.3,421.7,1332.3,421.7z"/>
		</g>
		<g>
			<path class="st24" d="M1319,635c-33-32-34-68-34-68s-17-59-69-66c-52-7-155-185.5-155-185.5l-61-64.7c0,0-5.9-19.7-12-19.8
				s-135.4-85.7-160.2-86.4l0.1,0.6c13.1,7,20.2,12.4,20.2,12.4c117,68.6,170,153.4,215,216.5c0.5,0.7,1,1.4,1.5,2.1
				c-0.3,0-9.4,1.2-13.4-3.1c-4-4.4-6.9-3.1-6.9-3.1s-4.6,5.5-9.3,0.5c-4.6-5-11.9-4.8-11.9-4.8s-21.7-4.6-29.3-8
				c-7.6-3.4-20.7-5.5-20.7-5.5l-12.1-2.4c-4.4,2.4-5.4,7.4-5.4,7.4s8.5,1,14.5,5.2c5.9,4.1,17,5.4,17,5.4s9.8,0.8,11.3,3
				c1.5,2.2,5.3,3.4,5.3,3.4c4.3,0,6.4,6.6,6.4,6.6l3.9-0.1c0.8-5.1,9-4.7,11-2.5c2,2.2,6.5,1.6,6.5,1.6s16.5,3.3,18.5,4.5
				c2,1.2,6.2,1.8,6.2,1.8s4.7,1.5,6.7,3.5s7.2,1.8,7.2,1.8s1.3,2.4,4.8,2.1c0.9-0.1,1.7,0,2.5,0.1
				c43.9,58.2,101.4,120.9,145.8,151.5c49.3,34,48,70.4,48,70.4s-10,23.6,35,56.3c41.3,30,86.8,110.2,94,123.3v-60.8
				C1379,705.5,1341.5,656.8,1319,635z"/>
		</g>
		<g>
			<path class="st15" d="M738.3,83.7c0,0-50-51.3-55.3-83.7H525C525,0,636.3,113,738.3,83.7z"/>
			<path class="st15" d="M811.7,85c0,0,49.3-8,70-66.7c0,0-8.2-13.8-7.2-18.3H700C700,0,725,91,811.7,85z"/>
			<path class="st15" d="M1400,0h-147.7c0,0-2.7,79.7,28,109c30.7,29.3,38,102.7,35.3,126c-0.1,0.7-0.2,1.5-0.3,2.2
				c17.5-4.6,31.7-12.3,33.6-25.2c0,0,24,12.7,36-15.7c0,0,9.3-7.7-18.7-24.3c0,0,30-3.3,29-40.3c0,0,6.3-24-5.7-36
				c0,0,1.3-34-25-32.3c0,0,19.9-3.1,35.3-16.7V0z"/>
			<g>
				<path class="st16" d="M1048,194.5c0,0,16,9.5,26.5-7.5c0,0,6.8-20.7-19.8-14c-26.7,6.7-20.7-26,0-26.7c0,0,12.7-23.3-11.3-30
					c0,0,4.7-41.3-31.3-40.7c0,0-3.5-21.2-23-13.7c0,0-15.5-1.5-17.5,11c0,0-17.9-33.1-59.5-20c0,0-16.5-7.9-31.5,0.1
					c-10,16.3-26,33.9-51.5,48.9c0,0,19,3.4,39,33.2c16.7,24.8,84,66.4,123,79.6C1011.9,215.5,1031.8,210.1,1048,194.5z"/>
				<path class="st15" d="M1127,36.1c0,0-11.3-13.7-14.7-36.1H897.3c0,0,0.7,24.7-16.8,53.1c15.1-8,31.5-0.1,31.5-0.1
					c41.6-13.1,59.5,20,59.5,20c2-12.5,17.5-11,17.5-11c19.5-7.5,23,13.7,23,13.7c36-0.7,31.3,40.7,31.3,40.7
					c24,6.7,11.3,30,11.3,30c-20.7,0.7-26.7,33.3,0,26.7c26.7-6.7,19.8,14,19.8,14s6.2,7,15.5,7.7c0,0-6.3,34.7,35.7,34
					c0,0,5.8,33.1,65.5,26.4C1191.7,196.2,1179.6,115.8,1127,36.1z"/>
			</g>
		</g>
		<g>
			<path class="st15" d="M440,20c0,0,25-13,38,10c0,0,28-17.5,53,14.3c0,0,8.3,16.7,38.3,10.1c0,0-50,62,39.3,130
				c0,0,28.3-18.8,22.2-99l0.4-0.2C577.5,61.5,526.2,28.3,507,0h-92c0,0-1.7,5.2-2.2,11.7C420.6,11,430,12.7,440,20z"/>
			<path class="st16" d="M848,157.6c0,0-45.7-34.6-119-43.3C700.5,111,665.4,100,631.3,85l-0.4,0.2c6.2,80.3-22.2,99-22.2,99
				c-89.3-68-39.3-130-39.3-130C539.3,61,531,44.3,531,44.3C506,12.5,478,30,478,30c-13-23-38-10-38-10c-10-7.3-19.4-9-27.2-8.3
				c-0.7,9,1,20.4,13.2,23.3c0,0-13.3,26-10,46c0,0-28.8,15.3-3.4,32.7c25.4,17.3,36-6.7,36-6.7s-2,13,6.3,19c0,0-19.3-1.3-12.7,10
				c6.7,11.3,23.3,7,23.3,7s-30.7,24.3-8,38.3c0,0,8,28.3,59,29.3c0,0,18.3,64.3,95,30c0,0,80.8,21.3,130.8-28.2
				c0,0,74,3.3,106.2-54.5C848.4,157.9,848.2,157.8,848,157.6z"/>
		</g>
		<path class="st14" d="M758,88.5c0,0-58,53.8,28.7,137.1C786.7,225.7,854.7,133.4,758,88.5z"/>
		<path class="st14" d="M728.7,17c0,0-56.7-27.4-90.7,25.6C638,42.6,708,70.3,728.7,17z"/>
		<path class="st14" d="M806,49.8c0,0-22-60.2-77.3-32.8C728.7,17,749.3,72,806,49.8z"/>
		<path class="st16" d="M1358.3,11c0,0-6.7,24-41,30.3"/>
		<path class="st16" d="M1367,194.3c-2,0.7-23.3,1.3-36.7-20"/>
		<g>
			<path class="st16" d="M1317.3,110.5c2-4.4,5.1-8.3,8.9-11.5c3.8-3.2,8.4-5.7,13.5-7c5.1-1.2,10.6-1,15.5,0.5
				c5,1.5,9.5,3.9,13.5,6.9l-0.9-0.4c0.8,0.3,1.4,0.6,2,0.9c0.6,0.3,1.2,0.7,1.7,1.1c0.6,0.4,1.1,0.8,1.6,1.2c0.5,0.5,1,0.9,1.5,1.4
				c1.9,2,3.3,4.5,3.8,7.2c0.5,2.7,0.3,5.3-0.4,7.7c-0.1,0.6-0.4,1.2-0.6,1.7l-0.7,1.7c-0.6,1.1-1.2,2.1-1.9,3.1
				c0.2-1.2,0.4-2.3,0.6-3.5c0.1-1.2,0.2-2.3,0.2-3.4l-0.1-1.6c0-0.3,0-0.5-0.1-0.8l-0.2-0.8c-0.1-0.5-0.2-1-0.4-1.5
				c-0.2-0.5-0.3-1-0.5-1.4c-0.8-1.8-2.1-3.3-3.6-4.5c-0.4-0.3-0.8-0.6-1.2-0.8c-0.4-0.2-0.8-0.5-1.3-0.7c-0.4-0.2-0.9-0.4-1.3-0.6
				c-0.4-0.2-1-0.4-1.2-0.4l-0.3-0.1l-0.6-0.4c-3.8-2.4-7.7-4.2-11.8-5.4c-4.1-1.2-8.3-1.5-12.5-0.9c-4.2,0.6-8.3,2.1-12.3,4.2
				C1324.7,104.6,1320.9,107.3,1317.3,110.5z"/>
		</g>
		<g>
			<path class="st16" d="M1060.3,18.3c0.8,3.8,1.9,7.5,3.4,11c1.5,3.5,3.2,6.7,5.4,9.7c2.1,2.9,4.6,5.5,7.4,7.7
				c1.4,1.1,2.8,2.1,4.4,2.9c1.5,0.9,3.1,1.6,4.8,2.3l-0.6-0.2c1.4,0.3,2.6,0.7,3.9,1c1.2,0.4,2.5,0.8,3.7,1.3c2.4,1,4.8,2,7.1,3.4
				c4.6,2.6,8.8,6,12.1,10.4c3.3,4.3,5.3,9.7,5.5,15c0.2,5.3-1.2,10.4-3.5,14.9c0.7-5,0.8-9.9-0.2-14.4c-1.1-4.5-3.2-8.5-6.3-11.8
				c-3-3.3-6.8-5.9-10.9-8.1c-2.1-1.1-4.2-2-6.3-2.9c-1.1-0.4-2.2-0.8-3.3-1.2c-1.1-0.4-2.3-0.7-3.2-0.9l-0.4-0.1l-0.2-0.1
				c-3.8-1.7-7.5-3.9-10.6-6.8c-3.1-2.8-5.7-6.2-7.6-9.9c-2-3.6-3.3-7.5-4-11.5c-0.4-2-0.6-4-0.7-5.9
				C1060,22.3,1060,20.3,1060.3,18.3z"/>
		</g>
		
			<ellipse transform="matrix(0.9788 -0.2048 0.2048 0.9788 -8.4197 267.3103)" class="st25" cx="1287.2" cy="174.3" rx="17.3" ry="42.6"/>
		<g>
			<path class="st24" d="M1301.6,172.3c-3.6-17-12.1-29.7-19-28.2c-2.8,0.6-5,3.5-6.3,7.8c4.6,4.8,8.9,13.8,11.1,24.7
				c2.1,10.1,2,19.4,0.2,25.7c2.6,2.7,5.3,4.1,7.9,3.5C1302.4,204.3,1305.2,189.3,1301.6,172.3z"/>
			<path class="st26" d="M1287.5,176.5c-2.3-10.9-6.5-19.9-11.1-24.7c-1.9,6.3-2,15.6,0.2,25.7c2.3,10.9,6.5,19.9,11.1,24.7
				C1289.5,196,1289.6,186.6,1287.5,176.5z"/>
		</g>
		<g>
			<g>
				<path class="st24" d="M1314.8,448.5c2.1,1.7,3.9,3.4,5.6,5.2c1.7,1.8,3.2,3.6,4.6,5.4c1.4,1.8,2.7,3.7,4,5.6
					c1.3,1.9,2.4,3.9,3.2,6.1c1.7,4.4,2.4,9.5,4.9,13.5c2.4,4,6,7.3,10,9.8c2,1.3,4.1,2.5,6,3.8c1.9,1.3,3.7,2.7,5.5,4.1
					c0.9,0.7,1.9,1.3,2.8,2c0.9,0.7,1.8,1.3,2.8,2c0.9,0.7,1.8,1.3,2.7,2.1c0.9,0.7,1.8,1.4,2.6,2.1c0.8,0.8,1.7,1.5,2.5,2.2
					c0.8,0.8,1.6,1.6,2.5,2.3c1.7,1.5,3.3,3.2,4.9,4.8c3.2,3.4,6.6,6.7,9.7,11l-0.6,1.3c-2.6,0-5.2-0.3-7.7-0.8
					c-1.2-0.3-2.5-0.6-3.7-0.9c-1.2-0.4-2.4-0.8-3.6-1.2c-4.7-1.7-9.2-4.1-13.3-7c-4.1-2.9-7.5-6.6-10.7-10.4
					c-1.6-1.9-3.2-3.8-4.5-5.9c-0.7-1-1.3-2.1-1.9-3.2c-0.6-1.1-1.2-2.2-1.7-3.3c-2.2-4.5-4.6-8.7-7.9-12.2
					c-3.2-3.6-7.8-6.3-11.2-9.9c-0.8-0.9-1.6-1.9-2.3-2.9c-0.7-1-1.3-2.1-1.8-3.2c-1.1-2.2-2.1-4.5-2.9-6.8
					c-0.8-2.4-1.4-4.8-1.7-7.3c-0.3-2.5-0.5-5.1-0.1-7.9L1314.8,448.5z"/>
			</g>
		</g>
		<g>
			<g>
				<path class="st15" d="M274.7,876.5c-26-17.5-90-14-90-14c-17-7.5-32,0.5-32,0.5c-14.5-4.5-30,6.5-30,6.5c-9-2.3-22.5,0-30.5,1.8
					c-3,0.7-5.2,1.3-6.1,1.5l-0.5,0.1c-22,2-29,19.5-29,19.5C31.2,899.1,9.6,934.4,0,952.4V980h196.9c16.4-2.1,23.3-9,23.3-9
					c12-4.5,11-19.5,11-19.5C251.2,943.5,274.7,876.5,274.7,876.5z"/>
			</g>
			<g>
				<g>
					<path class="st16" d="M118.7,764c19-106-67-191-67-191C25.7,584,0,635,0,635v317.4c9.6-18,31.2-53.2,56.7-59.9
						c0,0,7-17.5,29-19.5c0,0,0.2-0.1,0.5-0.1c0.9-0.3,3.1-0.9,6.1-1.5c0.7-0.2,1.3-0.5,1.9-0.8c27.3-11.8,20.6-54.6,20.6-54.6
						C135.7,785,118.7,764,118.7,764z"/>
					<path class="st15" d="M48,616.6c0,0,16.7,174.1-13,257.7C35,874.3,25,721.7,48,616.6z"/>
					<path class="st17" d="M221.7,897.1c0,0-80,45.5-181.7,67.8C40,964.9,136.7,902.5,221.7,897.1z"/>
				</g>
				<g>
					<path class="st14" d="M1183.4,861.3c-106-19-191,67-191,67c11,26,62,51.7,62,51.7h317.4c-18-9.6-53.2-31.2-59.9-56.7
						c0,0-17.5-7-19.5-29c0,0-0.1-0.2-0.1-0.5c-0.3-0.9-0.9-3.1-1.5-6.1c-0.2-0.7-0.5-1.3-0.8-1.9c-11.8-27.3-54.6-20.6-54.6-20.6
						C1204.4,844.3,1183.4,861.3,1183.4,861.3z"/>
					<g>
						<path class="st16" d="M1390.4,759.8c-4.5-12-19.5-11-19.5-11c-8-20-75-43.5-75-43.5c-17.5,26-14,90-14,90
							c-7.5,17,0.5,32,0.5,32c-4.5,14.5,6.5,30,6.5,30c-2.3,9,0,22.5,1.8,30.5c0.7,3,1.3,5.2,1.5,6.1l0.1,0.5c2,22,19.5,29,19.5,29
							c6.6,25.5,41.9,47.1,59.9,56.7h28.2V803.9c0,0,0,0,0,0V784C1397.8,766.9,1390.4,759.8,1390.4,759.8z"/>
					</g>
					<path class="st17" d="M1308.3,745.7c0,0,36.7,168,74.7,197.3C1383,943,1353.7,789.7,1308.3,745.7z"/>
					<g>
						<path class="st16" d="M1031.7,928.3c5.1-1.3,10.3-2.4,15.4-3.3c5.1-1,10.3-1.8,15.4-2.5c10.3-1.5,20.6-2.7,30.9-3.5
							c20.6-1.8,41.2-2.6,61.8-2.6c20.6,0,41.2,0.8,61.8,2.6c10.3,0.9,20.6,2.1,30.9,3.6c5.1,0.8,10.3,1.6,15.4,2.6
							c5.1,1,10.3,2,15.4,3.3c-5.1,1.3-10.3,2.4-15.4,3.3c-5.1,1-10.3,1.8-15.4,2.6c-10.3,1.5-20.6,2.7-30.9,3.6
							c-20.6,1.8-41.2,2.6-61.8,2.6c-20.6,0-41.2-0.8-61.8-2.6c-10.3-0.9-20.6-2.1-30.9-3.5c-5.1-0.8-10.3-1.6-15.4-2.5
							C1042,930.7,1036.8,929.7,1031.7,928.3z"/>
					</g>
				</g>
			</g>
		</g>
	</g>
	<g>
		<g>
			<g>
				<g>
					<linearGradient id="SVGID_11_" gradientUnits="userSpaceOnUse" x1="824.3462" y1="259.4211" x2="911.6795" y2="492.0878">
						<stop  offset="0" style="stop-color:#83C658"/>
						<stop  offset="1" style="stop-color:#79A938"/>
					</linearGradient>
					<path class="st27" d="M1015.8,362.3c-11.5-46.4-31.4-75.7-50.5-94c-79.2-51.6-159.5-24.8-159.5-24.8
						c-15.4,16.3-27.2,13.5-28.2,3.9c-1-9.6-8.6-9-8.6-9c-13-0.8-15.5,10.9-18,10.4c-2.5-0.5-4.8,1.4-5.5,2.4
						c-0.8,1-2.4,1.5-2.4,1.5c-5.4,0.3-7.3,3.6-7.3,3.6c-5.1,6.4-13.4,7.1-13.4,7.1c-24.5,1-24.8,29.2-24.8,29.2
						c-6.1,5.3-2.9,13.8-2.9,13.8c-3.3,3.4-2.6,7.3-2.6,7.3c-5.8,3.1,11.8,16.2,11.8,16.2c2-0.8,1.5,1.4,1.5,1.4
						c2.4-1,2.9,1.5,2.9,1.5c2.3-1.7,3.2,1.1,3.2,1.1c2.1-2.3,2.9,0.7,2.9,0.7c2-2.8,3,0.5,3,0.5c2.1-2.8,3.8,0.2,3.8,0.2
						c2.3-3.4,3.5,0.7,3.5,0.7c2.3-4.5,3.6,0.2,3.6,0.2c2.3-4.3,3.9,0.1,3.9,0.1c2.7-4.3,3.9,0,3.9,0c2.9-4.6,4.1,0.1,4.1,0.1
						c2.1-4.5,4.2-0.1,4.2-0.1c2.3-4.7,3.5,0.3,3.5,0.3c2-4.9,4.3-0.3,4.3-0.3c1.9-5.3,4.1-0.3,4.1-0.3c1.6-6.1,4.1-0.8,4.1-0.8
						c2.2-5.2,4.4-0.3,4.4-0.3c1-5.3,3.5-0.8,3.5-0.8c1-4.1,2.8-0.6,2.8-0.6c1.4-3.2,3.4-0.4,3.4-0.4c1.3-2,3-0.3,3-0.3
						c1.1-2.1,2.5-0.1,2.5-0.1c0.1-2.2,2.6-0.9,2.6-0.9c1.3-1.4,2.5,0,2.5,0c0.9-1.5,2,0,2,0c0.9-1.7,2.3,0,2.3,0
						c1.2-1.8,3-0.1,3-0.1c0.6-1.4,1.5-0.8,1.5-0.8c5.3,8.5,15.9,2.3,15.9,2.3c1.9-0.9,2.9-0.3,3.6,0.6c7.4-2.1,17.4-7.4,17.4-7.4
						s7.6-4,9.4-6c0,0,12.8-4.8,7.3-16.5c0,0,15.5-20.8,42.1-6.4c26.6,14.4,60.8,12.9,60.8,12.9c0.8-7.3,1-16.2-0.5-24.7
						c0,0-0.4-6.3,8.5-6.7c8.9-0.4,10.6,4.9,10.6,4.9s-1.4,32.1,1.2,39c2.6,7-5.3,17.7-5.3,17.7s-3.8,5.2-3.9,9.5l12.1,2.4
						c0,0,13,2.1,20.7,5.5c4.9,2.2,15.5,4.8,22.5,6.5C1016.1,363.6,1016,363,1015.8,362.3z"/>
					<path class="st28" d="M965.3,268.3c-26.5-25.4-51.8-29.9-51.8-29.9v-0.9l-1,0.6c-0.2-0.3,0-1.3,0-1.3l-1.6,0.9
						c0.3-0.3,0-1.6,0-1.6l-2,0.8v-1.5l-2,0.8c0.6-0.4-0.7-2-0.7-2s-2.5,1.7-2.2,1.1c0.3-0.6-0.5-2.6-0.5-2.6l-2.8,1.7
						c0.4-0.6,0-2.3,0-2.3l-2.4,1.2c0.5-0.4-0.5-2.1-0.5-2.1l-2.4,1.7c0.1-0.7-0.4-2.3-0.4-2.3l-2.3,1.5c0.3-0.4-0.5-2.1-0.5-2.1
						l-2.5,1.4c0.3-0.6-0.5-1.9-0.5-1.9l-2.2,1.7c0-0.3-0.3-2.1-0.3-2.1l-2.5,1.4c0.4-0.8-0.5-2.1-0.5-2.1l-2.6,1.4
						c0.3-0.9-0.9-2.4-0.9-2.4l-2.3,1.9c0.1-0.9-0.8-2.2-0.8-2.2l-2.4,2.3c0.1-0.6-0.4-2.3-0.4-2.3l-2.7,2.1
						c0.1-0.8-0.7-2.1-0.7-2.1l-2.1,1.8c0.2-0.4-0.8-1.8-0.8-1.8l-2.4,1.9c-0.3-0.9-1.2-1.9-1.2-1.9l-3.3,1.9
						c-0.1-0.7-1.5-1.9-1.5-1.9c-0.8,1.1-2.6,2-2.6,2c-0.2-0.9-1.4-2-1.4-2c-0.3,0.9-2.8,2.1-2.8,2.1c-0.1-0.7-1.4-2.1-1.4-2.1
						c-1.1,1.6-3.1,2.4-3.1,2.4c-0.1-0.8-1.5-2.4-1.5-2.4c-0.1,0.7-2.6,3.1-2.6,3.1c0-0.8-1.3-2.5-1.3-2.5c-0.6,1.4-3.9,3.1-3.9,3.1
						c0.2-0.9-1.5-2.3-1.5-2.3c-0.7,1.1-4,3.9-4,3.9c-0.1-1.3-1.4-2.8-1.4-2.8c-0.4,1.2-3.1,4-3.1,4c0-0.8-1.8-2.7-1.8-2.7l-2.8,4.3
						c0.2-0.9-1.4-3-1.4-3l-2,4c0-0.7-2-2.3-2-2.3l-2.7,4.2c0-0.9-1.5-2.6-1.5-2.6l-4,5.4l-2.1-2.4l-2.9,4.6
						C805.8,243.5,886.1,216.7,965.3,268.3z"/>
				</g>
				<g>
					<g>
						<path class="st29" d="M832.1,335.4c0,0-3.8-0.8-4.3,4.4l2.1-1.1C829.8,338.7,830.3,336,832.1,335.4z"/>
						<path class="st29" d="M840,339.2c0,0-2.6-1.4-6.1,1.5c0,0,2,0.1,3.1,0.5C837,341.2,837.9,339.3,840,339.2z"/>
						<linearGradient id="SVGID_12_" gradientUnits="userSpaceOnUse" x1="815.4266" y1="346.3917" x2="866.0898" y2="346.3917">
							<stop  offset="0" style="stop-color:#83C658"/>
							<stop  offset="1" style="stop-color:#79A938"/>
						</linearGradient>
						<path class="st30" d="M854.7,343.4c0,0-6.1,1.2-10.6-0.7c-4.5-1.9-7.1-1.5-7.1-1.5c-1.1-0.4-3.1-0.5-3.1-0.5s-2.2-2.4-4-2.1
							l-2.1,1.1c0,0-1.7,1-2.2,2c0,0-1.1-2.3-3.3-2.2l-2.3,0.8l-0.1-0.1c-0.2,0.1-1.8,0.8-3.4,2.4c1.3,0.6,0.7,2,0.7,2
							s-3.2,6.1-0.8,7.5c2.4,1.4,4.1-0.6,4.1-0.6s-0.3,1.6,2.6,1.8c2.9,0.2,8.6-4.7,8.6-4.7c1.8,3.8,5.8,2,5.8,2
							c0.3,3.7,3.8,3.4,3.8,3.4c1.8-1.9,5.8-2.3,5.8-2.3c9.3,0,19.2-8.1,19.2-8.1C858.2,341.8,854.7,343.4,854.7,343.4z"/>
						<path class="st29" d="M822.3,339.6c0,0,0.2-3,1.7-3.3c0,0-2.8-0.1-4.1,3.9c0,0,0,0,0,0l0.1,0.1L822.3,339.6z"/>
						<path class="st29" d="M839,336.2c-0.3-1.8,1.3-3.4,1.3-3.4l-1.9-0.9C837,334.7,839,336.2,839,336.2z"/>
						<path class="st29" d="M847.7,337.4c-1.3-1-0.5-3.8-0.5-3.8c-0.6,0-1.5-0.5-1.5-0.5C845.1,337.8,847.7,337.4,847.7,337.4z"/>
						<linearGradient id="SVGID_13_" gradientUnits="userSpaceOnUse" x1="830.8354" y1="327.1313" x2="883.4361" y2="327.1313">
							<stop  offset="0" style="stop-color:#83C658"/>
							<stop  offset="1" style="stop-color:#79A938"/>
						</linearGradient>
						<path class="st31" d="M838.5,327.3c-0.6,1.6-0.1,4.6-0.1,4.6l1.9,0.9c1.6,0.8,4.1-1.8,4.1-1.8c0.1,0.8,1.4,2,1.4,2
							s0.9,0.5,1.5,0.5c0,0,2.1,0.2,4.5-1.4c2.4-1.6,6.7,0,6.7,0c4-0.7,15.8,0.5,25,1.8c-6.1-0.8-13.7-5.7-13.7-5.7
							c-12.5-0.9-18.5-7-18.5-7c-6.4,1.8-11-1-11-1c-1.8,2-9.4,6-9.4,6C832.8,328,838.5,327.3,838.5,327.3z"/>
					</g>
					<path class="st28" d="M889.6,297.3c-26.6-14.4-42.1,6.4-42.1,6.4c5.5,11.8-7.3,16.5-7.3,16.5s4.6,2.8,11,1c0,0,6,6.1,18.5,7
						c0,0,7.6,4.9,13.7,5.7c6.9,0.9,12.4,1.8,12.4,1.8c9.1,1.9,11.9-0.8,11.9-0.8c9.5-5.9,12.5-1.1,15,1.1s12.8,5.5,12.8,5.5
						s3.8-4.7,8.5-6.4c0,0,1.4-5.6,2.9-8.8c0.8-1.7,2.5-8,3.4-16.3C950.3,310.2,916.1,311.7,889.6,297.3z"/>
					<g>
						<path class="st28" d="M695.8,315.5c1.8,0,4.1-0.3,7.2-1.3l0.1,0c33.4-10.6,48.5-11.3,55.3-10.1c15.9,2.9,20.9-7.6,25.1-19.5
							c-4,11.4-10.6,19.9-24.7,17.3c-7-1.3-22.5-0.6-56.4,10.1l-0.1,0c-6.9,2.2-9.6,0.6-9.6,0.6l-0.2-0.2l-0.4,0c0,0.7,0,1.1,0,1.1
							c-0.5,0.3-0.8,0.6-1,1l0.7,0.1C692.3,315,693.5,315.5,695.8,315.5z"/>
					</g>
					<g>
						<path class="st22" d="M966.6,427.3c-4.2-4.2-9.7-6.5-15.7-6.5c-5.9,0-11.5,2.3-15.7,6.5c0,0-0.3,0.2-0.7,0.7
							c-1.4,1.7-4.5,6.5-3.2,15.5c0,0,4.3-9.1,8.2-12c3-3,7.1-4.7,11.4-4.7c4.3,0,8.4,1.7,11.4,4.7c4.8,4.8,4.8,12.6,0,17.4
							c-3.6,3.6-9.5,3.6-13.1,0c-0.8-0.8-1.4-1.7-1.7-2.8c0.3,0.7,0.8,1.4,1.4,2c3.1,3.1,8.2,3.1,11.3,0c1.8-1.8,2.7-4.1,2.7-6.6
							c0-2.5-1-4.8-2.7-6.6c-4.2-4.2-11.1-4.2-15.3,0c-5,5-5,13.1,0,18.1c3,3,6.9,4.5,10.8,4.5c3.9,0,7.8-1.5,10.8-4.5
							C973.8,446,973.8,434.4,966.6,427.3z"/>
						<path class="st24" d="M907.7,335c0,0-2.8,2.6-11.9,0.8c0,0-30.5-4.9-37.4-3.6c0,0-4.2-1.6-6.7,0c-2.4,1.6-4.5,1.4-4.5,1.4
							s-0.8,2.7,0.5,3.8c0,0-2.5,0.5-2-4.2c0,0-1.3-1.3-1.4-2c0,0-2.4,2.5-4.1,1.8c0,0-1.6,1.6-1.3,3.4c0,0-1.9-1.5-0.6-4.3
							c0,0-0.4-3,0.1-4.6c0,0-5.6,0.7-7.6-1.1c0,0-10,5.2-17.4,7.4c0.6,0.8,0.9,1.8,1.2,2.5c0.7,1.5-0.3,1.7-0.3,1.7
							c-4.8,1.1-4.1,2.8-4.1,2.8s0.4,2.3,4.2,1.9c0.8-0.1,1.4,0,1.8,0.1c0.1,0,0.1,0,0.2,0.1c1.8-1.7,3.5-2.4,3.5-2.4
							c1.3-4,4.1-3.9,4.1-3.9c-1.5,0.3-1.7,3.3-1.7,3.3c2.2-0.1,3.3,2.2,3.3,2.2c0.5-0.9,2.2-2,2.2-2c0.6-5.3,4.3-4.4,4.3-4.4
							c-1.8,0.6-2.3,3.3-2.3,3.3c1.9-0.4,4,2.1,4,2.1c3.5-2.9,6.1-1.5,6.1-1.5c-2.1,0.1-3,2-3,2s2.6-0.4,7.1,1.5
							c4.5,1.9,10.6,0.7,10.6,0.7s3.5-1.6,11.4,0.4c0,0,32.7,2.6,37.4,5.2c4.7,2.5,10.4,1.8,10.4,1.8c9.3,1,14.7,3.9,14.7,3.9
							s2-10,7-12.9c0,0-10.3-3.3-12.8-5.5S917.2,329.2,907.7,335z"/>
					</g>
					<circle class="st32" cx="733.8" cy="280.3" r="17.1"/>
					
						<ellipse transform="matrix(0.9252 -0.3796 0.3796 0.9252 -51.4568 299.5331)" class="st28" cx="733.8" cy="280.3" rx="13.3" ry="13.3"/>
					<circle class="st29" cx="736.1" cy="278" r="5.1"/>
					<path class="st28" d="M837.3,350.7c0.1-0.6,0.2-1.3,0.4-1.9c0.2-0.6,0.5-1.2,0.9-1.8c0.4-0.5,0.9-1.2,1.6-1.4
						c0.7-0.3,1.5-0.3,2.1,0.1c0,0,0.1,0.1,0,0.1c0,0,0,0,0,0l0,0c-0.6,0.5-1,0.8-1.4,1.1c-0.4,0.3-0.9,0.5-1.4,0.9
						c-0.4,0.4-0.8,0.8-1.2,1.3c-0.4,0.5-0.7,1-1,1.6l0,0C837.5,350.8,837.4,350.8,837.3,350.7C837.4,350.7,837.3,350.7,837.3,350.7
						z"/>
					<path class="st28" d="M844.2,331c0.1-0.6,0.2-1.3,0.4-1.9c0.2-0.6,0.5-1.2,0.9-1.8c0.4-0.5,0.9-1.2,1.6-1.4
						c0.7-0.3,1.5-0.3,2.1,0.1c0,0,0.1,0.1,0,0.1c0,0,0,0,0,0l0,0c-0.6,0.5-1,0.8-1.4,1.1c-0.4,0.3-0.9,0.5-1.4,0.9
						c-0.4,0.4-0.8,0.8-1.2,1.3c-0.4,0.5-0.7,1-1,1.6l0,0C844.4,331,844.3,331.1,844.2,331C844.2,331,844.2,331,844.2,331z"/>
					<path class="st28" d="M838.4,327.3c0.1-0.6,0.2-1.3,0.4-1.9c0.2-0.6,0.5-1.2,0.9-1.8c0.4-0.5,0.9-1.2,1.6-1.4
						c0.7-0.3,1.5-0.3,2.1,0.1c0,0,0.1,0.1,0,0.1c0,0,0,0,0,0l0,0c-0.6,0.5-1,0.8-1.4,1.1c-0.4,0.3-0.9,0.5-1.4,0.9
						c-0.4,0.4-0.8,0.8-1.2,1.3c-0.4,0.5-0.7,1-1,1.6l0,0C838.6,327.3,838.5,327.4,838.4,327.3C838.5,327.3,838.4,327.3,838.4,327.3
						z"/>
					<path class="st28" d="M831.6,348.7c-0.2-0.5-0.3-1.1-0.4-1.6c-0.1-0.6-0.1-1.1-0.1-1.7c0-0.6,0-1.2,0.4-1.7
						c0.3-0.5,0.8-1,1.4-1.1c0,0,0.1,0,0.1,0.1c0,0,0,0,0,0l0,0c0,0.7-0.1,1.2-0.2,1.6c-0.1,0.5-0.4,0.9-0.6,1.4
						c-0.3,1-0.5,2-0.5,3.1C831.7,348.7,831.7,348.8,831.6,348.7C831.6,348.8,831.6,348.7,831.6,348.7z"/>
					<path class="st28" d="M820.4,351.6c0-0.8,0.1-1.5,0.3-2.3c0.1-0.8,0.3-1.5,0.6-2.3c0.3-0.7,0.5-1.5,1.1-2.2
						c0.6-0.6,1.3-1.1,2.1-1.3c0,0,0.1,0,0.1,0.1c0,0,0,0,0,0l0,0c-0.3,0.8-0.7,1.4-1,2c-0.3,0.6-0.8,1.1-1.2,1.8
						c-0.4,0.6-0.7,1.3-1,2c-0.3,0.7-0.6,1.4-0.8,2.1C820.5,351.6,820.5,351.6,820.4,351.6C820.4,351.6,820.4,351.6,820.4,351.6z"/>
					<path class="st28" d="M786.8,257.9c1.4,1.3,2.4,3.1,3.1,4.9c0.6,1.9,0.9,3.9,0.7,5.9c-0.2,2-0.7,4-1.7,5.7
						c-0.4,0.9-1.1,1.6-1.6,2.4c-0.6,0.7-1.4,1.4-2.1,2c0.3-0.9,0.8-1.7,1.2-2.6l0.5-1.3c0.1-0.2,0.2-0.4,0.3-0.6l0.2-0.6
						c0.6-1.7,0.9-3.4,1.1-5.1c0.2-1.7,0.1-3.5-0.2-5.3C787.9,261.5,787.4,259.7,786.8,257.9z"/>
					<path class="st28" d="M783.6,261.3c0.8,0.8,1.3,1.7,1.7,2.7c0.4,1,0.6,2,0.6,3.1c0,1.1-0.1,2.1-0.5,3.2c-0.4,1-1,2-1.8,2.7
						c0-1.1,0.1-2,0.1-3c0-0.9,0-1.8-0.1-2.8l-0.1-2.8C783.5,263.4,783.5,262.4,783.6,261.3z"/>
					<path class="st28" d="M991.4,355.7c0-0.6,0-1.1,0-1.5c0-0.4,0.1-0.8,0.2-1.2c0.1-0.4,0.3-0.7,0.5-1.1c0.2-0.4,0.5-0.8,0.9-1.2
						c0.5,0.4,0.7,0.9,0.8,1.5c0.1,0.5,0.1,1-0.1,1.5c-0.2,0.5-0.4,1-0.8,1.3C992.5,355.4,992,355.7,991.4,355.7z"/>
					<path class="st28" d="M987.9,354.6c0.5-1.4,0.8-2.8,1.1-4.1c0.3-1.4,0.6-2.7,0.8-4.1c0.3-1.4,0.4-2.8,0.7-4.1
						c0.1-0.7,0.2-1.4,0.4-2.1c0.1-0.7,0.3-1.4,0.5-2.2c0.3,0.7,0.4,1.4,0.6,2.2c0.1,0.7,0.2,1.5,0.3,2.2c0.1,1.5,0,3-0.2,4.5
						c-0.3,1.5-0.7,2.9-1.4,4.3C990,352.4,989.1,353.7,987.9,354.6z"/>
					<path class="st28" d="M983.1,353.2c0.3-1.8,0.6-3.6,1-5.3c0.4-1.7,0.8-3.4,1.1-5.1c0.3-1.7,0.7-3.4,0.9-5.1
						c0.2-1.7,0.4-3.4,0.4-5.3c0.9,1.6,1.2,3.5,1.3,5.4c0.1,1.9-0.1,3.7-0.5,5.5c-0.4,1.8-0.9,3.5-1.6,5.2
						C985.1,350.1,984.3,351.7,983.1,353.2z"/>
					<path class="st28" d="M792.1,281.9c-0.2,3.3-0.3,6.6-0.3,9.9c0,3.3,0.2,6.5,0.9,9.6c0.3,1.5,0.8,3.1,1.4,4.4
						c0.6,1.4,1.5,2.6,2.6,3.6c1.1,1,2.5,1.7,4,2.1c1.5,0.4,3.2,0.4,4.8,0.5c-1.6,0.5-3.3,0.8-5,0.6c-1.7-0.2-3.5-0.7-5-1.8
						c-1.5-1-2.6-2.5-3.5-4.1c-0.8-1.6-1.4-3.2-1.7-4.9c-0.3-1.7-0.5-3.4-0.6-5.1c0-1.7,0-3.4,0.2-5
						C790.4,288.4,791,285.1,792.1,281.9z"/>
					<path class="st28" d="M818.4,311.2c-0.6,2.1-1.6,4.1-2.7,6c-1.1,1.9-2.5,3.7-4,5.3c-1.5,1.6-3.3,3.1-5.2,4.2
						c-2,1.1-4.1,1.9-6.3,2c2-1,3.7-2.2,5.3-3.5c1.6-1.3,3.1-2.8,4.6-4.3c1.5-1.5,2.8-3.1,4.2-4.8L818.4,311.2z"/>
					<linearGradient id="SVGID_14_" gradientUnits="userSpaceOnUse" x1="899.0167" y1="231.393" x2="986.35" y2="464.0596">
						<stop  offset="0" style="stop-color:#83C658"/>
						<stop  offset="1" style="stop-color:#79A938"/>
					</linearGradient>
					<path class="st33" d="M1019,376.7c-2.5,0.2-4.8,1.4-5.2,4l-3.9,0.1c0,0-2.2-6.6-6.4-6.6c0,0-3.8-1.3-5.3-3.4
						c-1.5-2.2-11.3-3-11.3-3s-11.1-1.2-17-5.4c-5.9-4.1-14.5-5.2-14.5-5.2s0,1.6-0.3,2.6c0,0,12.4,2.7,13.9,6c1.5,3.3,5,1.8,5,1.8
						c1,5.3,7.5,3.8,7.5,3.8c1.9,3.3,5.6,1.3,5.6,1.3s20.3,29.7,11.3,61.1c-9,31.4-33.8,30.2-33.8,30.2
						c18.7-7.3,17.4-21.5,17.4-21.5c1.9-25.9-21.9-31.1-21.9-31.1c-22.7-5.4-36.6,8.4-36.6,8.4c-11,9-8.5,24.9-8.5,24.9
						c7.3,52.2,68.4,37.4,68.4,37.4S1038.1,473.8,1019,376.7z M945,453.2c-5-5-5-13.1,0-18.1c4.2-4.2,10.5-3.8,14.7,0.5
						c1.8,1.8,2.8,3.6,2.8,6.1c0,2.5-0.8,4.2-2.6,6c-3.1,3.1-7.8,3.7-11,0.6c-0.6-0.6-1.1-1.3-1.4-2c0.3,1,0.9,2,1.7,2.8
						c3.6,3.6,9.5,3.6,13.1,0c4.8-4.8,4.8-12.6,0-17.4c-3-3-7.1-4.7-11.4-4.7c-4.3,0-8.4,1.7-11.4,4.7c-3.9,2.9-8.2,12-8.2,12
						c-1.3-9,1.8-13.8,3.2-15.5c0.4-0.5,0.7-0.7,0.7-0.7c4.2-4.2,9.7-6.5,15.7-6.5c5.9,0,11.5,2.3,15.7,6.5c7.1,7.1,7.1,18.8,0,25.9
						c-3,3-6.9,4.5-10.8,4.5C951.9,457.6,948,456.1,945,453.2z"/>
				</g>
				<g>
					<path class="st29" d="M949,369.4c-2.4,2.3-3.5,1.1-3.5,1.1l-1.8,1.9C948.4,373.6,949,369.4,949,369.4z"/>
					<path class="st28" d="M944.2,364c4.3-1.7,4.2-4.4,4.2-4.4S945.2,360.6,944.2,364z"/>
					<path class="st29" d="M949.9,359.3c-0.3,1.1,0.9,2.5,0.9,2.5c1.4,1.5,0.7,2.4,0.7,2.4c2.5,1,3.8-4.5,3.8-4.5
						C954.2,359.2,949.9,359.3,949.9,359.3z"/>
				</g>
				<g>
					<linearGradient id="SVGID_15_" gradientUnits="userSpaceOnUse" x1="945.5308" y1="287.3765" x2="953.1974" y2="378.3765">
						<stop  offset="0" style="stop-color:#83C658"/>
						<stop  offset="1" style="stop-color:#79A938"/>
					</linearGradient>
					<path class="st34" d="M969,315.2c-0.9-11.9,0-31.5,0-31.5s-1.8-5.3-10.6-4.9c-8.9,0.4-8.5,6.7-8.5,6.7
						c3.2,18.2-1.4,37.9-2.9,41c-1.5,3.1-2.9,8.8-2.9,8.8c-4.7,1.7-8.5,6.4-8.5,6.4c-5,2.9-7,12.9-7,12.9s-0.7,8.1-0.1,11.2
						c0.7,3.1,4.1,2.5,4.1,2.5c1.6,3.1,4.6,2.6,4.6,2.6c3,2.4,6.6,1.5,6.6,1.5l1.8-1.9c0.3-1.9-1.3-2.5-1.3-2.5
						c-0.8-1.3,0-3.9,0-3.9c1-3.4,4.2-4.4,4.2-4.4c0.6-1.1,1.4-0.3,1.4-0.3s4.3-0.2,5.4,0.5c0.3-1,0.3-2.6,0.3-2.6s1.1-5,5.4-7.4
						c0.2-4.3,3.9-9.5,3.9-9.5L969,315.2L969,315.2z"/>
					<path class="st28" d="M970.2,322.7c-0.6-1.5-1-4.2-1.2-7.5l0,0l-4.1,25.2C964.9,340.4,972.8,329.7,970.2,322.7z"/>
				</g>
				<g>
					<path class="st28" d="M960.4,285c0.4,2.5,0.6,5,0.8,7.5c0.2,2.5,0.2,5,0.2,7.5c0,2.5-0.1,5-0.2,7.5c-0.1,2.5-0.4,5-0.8,7.5
						c-0.4-2.5-0.6-5-0.8-7.5c-0.2-2.5-0.2-5-0.2-7.5c0-2.5,0.1-5,0.2-7.5C959.7,290,960,287.5,960.4,285z"/>
					<path class="st28" d="M954.1,288.5c0.4,1.4,0.6,2.9,0.8,4.3c0.1,1.4,0.2,2.9,0.2,4.3c0,1.4-0.1,2.9-0.2,4.3
						c-0.1,1.4-0.4,2.9-0.8,4.3c-0.4-1.4-0.6-2.9-0.8-4.3c-0.1-1.4-0.2-2.9-0.2-4.3c0-1.4,0.1-2.9,0.2-4.3
						C953.5,291.4,953.7,290,954.1,288.5z"/>
					<path class="st28" d="M965.4,288.5c0.4,1.4,0.6,2.9,0.8,4.3c0.1,1.4,0.2,2.9,0.2,4.3c0,1.4-0.1,2.9-0.2,4.3
						c-0.1,1.4-0.4,2.9-0.8,4.3c-0.4-1.4-0.6-2.9-0.8-4.3c-0.1-1.4-0.2-2.9-0.2-4.3c0-1.4,0.1-2.9,0.2-4.3
						C964.7,291.4,965,290,965.4,288.5z"/>
				</g>
			</g>
			<path class="st35" d="M871,300c1.1,1.5,1.7,3.3,2.1,5.1c0.4,1.8,0.4,3.7,0.2,5.6c-0.2,1.9-0.8,3.7-1.7,5.4
				c-0.9,1.7-2.3,3.1-3.8,4.1c0.8-1.7,1.6-3.2,2.1-4.8c0.5-1.6,0.8-3.3,1-4.9c0.2-1.7,0.2-3.4,0.2-5.1L871,300z"/>
			<path class="st35" d="M887,303c0.8,0.8,1.4,1.8,1.9,2.9c0.2,0.5,0.4,1.1,0.6,1.6c0.2,0.6,0.3,1.1,0.4,1.7
				c0.5,2.3,0.5,4.6,0.3,6.9c-0.2,2.3-0.8,4.5-1.6,6.7c-0.4,1.1-0.9,2.1-1.4,3.1c-0.6,1-1.1,2-1.8,2.9c0.2-1.1,0.4-2.2,0.6-3.3
				c0.2-1.1,0.4-2.2,0.6-3.2c0.4-2.2,0.8-4.3,0.9-6.4c0.2-2.1,0.3-4.3,0.2-6.4C887.9,307.3,887.7,305.2,887,303z"/>
			<path class="st35" d="M910,311.2c0.7,1.4,1.2,2.9,1.4,4.5c0.3,1.6,0.3,3.2,0.1,4.7c-0.1,1.6-0.6,3.1-1.3,4.6
				c-0.6,1.5-1.7,2.7-2.8,3.8c0.6-1.5,1.2-2.8,1.6-4.3c0.4-1.4,0.7-2.8,0.9-4.3C910.3,317.3,910.2,314.3,910,311.2z"/>
			<path class="st35" d="M933.5,315c0.8,1.4,1.2,3,1.4,4.6c0.2,1.6,0.2,3.2,0,4.8c-0.2,1.6-0.6,3.2-1.2,4.6
				c-0.6,1.5-1.5,2.9-2.5,4.1c0.1-1.6,0.4-3.1,0.6-4.6c0.2-1.5,0.4-3,0.7-4.4c0.2-1.5,0.4-2.9,0.6-4.4L933.5,315z"/>
		</g>
		<path class="st28" d="M960.7,464.2c0,0-21.8,4.1-29.1-18.9c0,0-0.7,10.8,8.9,17.1C949.8,468.4,960.7,464.2,960.7,464.2z"/>
	</g>
</g>
<g id="Hojas">
	<path class="st14" d="M683.3,137.7c0,0-48,18.5-14.7,77.2C668.7,214.9,705.3,182.3,683.3,137.7z"/>
	<path class="st14" d="M510,141.7c0,0-66.7,22-41.3,89.3C468.7,231,525.3,225.7,510,141.7z"/>
</g>
</svg>
